<?xml version="1.0" encoding="UTF-8" standalone="no"?>
<svg
   xmlns:dc="http://purl.org/dc/elements/1.1/"
   xmlns:cc="http://creativecommons.org/ns#"
   xmlns:rdf="http://www.w3.org/1999/02/22-rdf-syntax-ns#"
   xmlns:svg="http://www.w3.org/2000/svg"
   xmlns="http://www.w3.org/2000/svg"
   xmlns:sodipodi="http://sodipodi.sourceforge.net/DTD/sodipodi-0.dtd"
   xmlns:inkscape="http://www.inkscape.org/namespaces/inkscape"
   width="297mm"
   height="210mm"
   viewBox="0 0 297 210"
   version="1.1"
   id="svg8"
   sodipodi:docname="kbIndex.svg"
   inkscape:version="1.0.2-2 (e86c870879, 2021-01-15)">
  <defs
     id="defs2" />
  <sodipodi:namedview
     id="base"
     pagecolor="#ffffff"
     bordercolor="#666666"
     borderopacity="1.0"
     inkscape:pageopacity="0.0"
     inkscape:pageshadow="2"
     inkscape:zoom="1.979899"
     inkscape:cx="638.46333"
     inkscape:cy="400.01538"
     inkscape:document-units="mm"
     inkscape:current-layer="layer1"
     inkscape:document-rotation="0"
     showgrid="false"
     inkscape:window-width="3840"
     inkscape:window-height="2068"
     inkscape:window-x="-8"
     inkscape:window-y="2152"
     inkscape:window-maximized="1" />
  <metadata
     id="metadata5">
    <rdf:RDF>
      <cc:Work
         rdf:about="">
        <dc:format>image/svg+xml</dc:format>
        <dc:type
           rdf:resource="http://purl.org/dc/dcmitype/StillImage" />
        <dc:title></dc:title>
      </cc:Work>
    </rdf:RDF>
  </metadata>
  <g
     inkscape:label="Warstwa 1"
     inkscape:groupmode="layer"
     id="layer1">
    <path
       style="fill:#000000;stroke-width:0.229306"
       d="m 27.714786,137.44294 c -1.692752,-0.36771 -3.425145,-1.26237 -4.53885,-2.34399 -0.893209,-0.86747 -2.022224,-2.9475 -2.419839,-4.45817 -0.153846,-0.58449 -0.330256,-4.42089 -0.430411,-9.3601 -0.105781,-5.2168 -0.269403,-8.68214 -0.434348,-9.19919 -0.688373,-2.15784 -2.293616,-3.49621 -4.732709,-3.94586 l -1.603725,-0.29566 -0.06416,-2.91048 -0.06415,-2.91048 h 0.677273 c 2.816443,0 4.909853,-1.52083 5.820815,-4.228763 0.130852,-0.388973 0.309127,-4.428866 0.400288,-9.070958 0.177722,-9.049859 0.286344,-9.910251 1.542545,-12.21831 1.562767,-2.871323 4.840526,-4.29169 9.90382,-4.29169 h 1.847847 v 2.730143 2.730156 l -1.203855,0.14573 c -2.50267,0.302952 -2.932944,0.407641 -3.663548,0.891436 -0.412821,0.273351 -1.008552,1.012804 -1.323847,1.643213 -0.568619,1.136902 -0.574473,1.211223 -0.722366,9.17189 -0.08913,4.797702 -0.255276,8.436714 -0.41308,9.047603 -0.682244,2.64108 -2.345229,4.70742 -4.677678,5.81226 l -1.180694,0.55927 1.081486,0.50973 c 1.521861,0.7173 3.084281,2.16544 3.746696,3.47265 1.2031,2.37421 1.305773,3.19823 1.453972,11.66939 0.133537,7.63307 0.156815,7.94842 0.662403,8.97465 0.743716,1.50958 1.936124,2.27396 3.759802,2.41022 2.703698,0.20199 2.48071,-0.0736 2.48071,3.06575 v 2.7473 l -2.235729,-0.0182 c -1.229651,-0.0104 -2.880533,-0.1583 -3.668622,-0.3295 z m 58.415322,-2.47262 v -2.82037 l 1.65399,-0.0568 c 2.792699,-0.0959 3.998215,-0.9296 4.750772,-3.28523 0.174057,-0.54481 0.297843,-3.3802 0.350376,-8.02569 0.08957,-7.91784 0.262808,-9.28122 1.49968,-11.80012 0.775515,-1.57935 2.005679,-2.71793 3.783728,-3.50201 l 1.146522,-0.50561 -1.402271,-0.67332 c -2.483416,-1.19246 -4.085562,-3.46979 -4.691557,-6.668668 -0.167895,-0.886275 -0.30134,-4.247906 -0.3393,-8.547799 -0.06877,-7.790094 -0.185913,-8.648952 -1.347424,-9.88052 -0.771771,-0.818311 -1.706796,-1.146548 -3.971357,-1.394094 l -1.433159,-0.156674 v -2.492739 c 0,-1.371006 0.0026,-2.570137 0.0039,-2.664727 0.0078,-0.282477 4.825561,-0.156325 6.186752,0.16198 3.574376,0.835863 5.650697,2.968487 6.532799,6.709976 0.255905,1.085396 0.340431,2.982564 0.342992,7.697989 0.0052,8.973458 0.373594,11.533658 1.894929,13.156606 0.83207,0.88765 2.29559,1.5626 3.79308,1.74928 l 1.30919,0.16321 0.064,2.89575 0.064,2.89575 -1.25748,0.15711 c -1.60151,0.20009 -3.48308,1.15965 -4.2952,2.19045 -1.227445,1.55794 -1.38442,2.76136 -1.555357,11.92388 -0.167986,9.00413 -0.21242,9.34344 -1.520675,11.6131 -1.445639,2.50801 -4.954144,3.97969 -9.48766,3.97969 h -2.075814 z m -23.045203,-5.06249 c -0.378365,-0.17022 -0.894297,-0.54073 -1.146536,-0.82337 -0.44486,-0.49847 -0.460499,-0.88476 -0.521729,-12.88956 l -0.06318,-12.37572 0.785434,-0.78543 0.785434,-0.78543 h 6.739174 6.739187 l 3.717155,3.74193 3.717155,3.74192 v 9.35142 9.35142 l -0.779649,0.77965 -0.779636,0.77963 -8.793863,0.004 c -4.836624,0.001 -9.000251,0.0519 -9.252477,0.11154 -0.252239,0.0597 -0.768183,-0.0309 -1.146535,-0.20111 z m 18.096376,-2.11648 c 0.321425,-0.12337 0.362713,-1.07607 0.362713,-8.36964 v -8.23047 h -2.700646 c -3.808675,0 -3.719911,0.0879 -3.719911,-3.6819 v -2.96797 h -5.732636 -5.732636 v 11.56083 c 0,9.0341 0.06266,11.58609 0.286624,11.67648 0.413283,0.16676 16.80354,0.17881 17.236492,0.013 z M 66.189655,123.9287 c -0.29965,-0.36106 -0.11869,-1.27398 0.308412,-1.5553 0.140647,-0.0927 1.982149,-0.17006 4.092218,-0.17198 l 3.836508,-0.003 0.138515,0.5519 c 0.07618,0.30355 0.02288,0.76788 -0.1183,1.03188 -0.245076,0.45792 -0.434278,0.47997 -4.11892,0.47997 -3.09647,0 -3.916835,-0.066 -4.138381,-0.33296 z m 0.08125,-4.11914 c -0.06851,-0.17851 -0.09113,-0.61707 -0.05018,-0.97454 l 0.07436,-0.64996 6.137131,-0.0611 6.137131,-0.0611 0.249691,0.54801 c 0.181987,0.39943 0.178933,0.68021 -0.0117,1.03562 -0.25606,0.47845 -0.37518,0.48762 -6.336694,0.48762 -5.027971,0 -6.097195,-0.056 -6.200285,-0.32459 z m 0.150462,-4.133 c -0.15067,-0.18156 -0.240694,-0.6201 -0.200057,-0.97456 l 0.07384,-0.64444 6.048445,-0.0611 c 4.270292,-0.0432 6.140992,0.0156 6.363227,0.20005 0.419328,0.34801 0.398658,1.00568 -0.0455,1.44989 -0.515957,0.51596 -11.813685,0.54387 -12.239955,0.0303 z m 86.092733,5.75647 c -1.48157,-0.49197 -2.37315,-1.03344 -3.33692,-2.02653 l -0.90523,-0.93279 v 1.2731 1.27309 l -2.12108,0.0731 c -1.16659,0.0402 -2.55962,0.0413 -3.09562,0.003 l -0.97456,-0.0705 v -16.26756 c 0,-15.329309 0.0231,-16.269144 0.40129,-16.295638 0.22071,-0.01547 1.61374,-0.06422 3.09562,-0.10816 l 2.69435,-0.08008 0.0272,5.554198 c 0.0149,3.054792 0.0149,5.63158 0,5.726168 -0.064,0.405171 0.40315,0.10296 1.35826,-0.878826 1.28684,-1.322717 2.37662,-1.888932 4.05667,-2.107696 3.34558,-0.435643 6.12346,0.529646 8.40363,2.920183 2.282,2.392411 3.19228,5.128821 3.16866,9.525191 -0.023,4.26682 -1.13407,7.51061 -3.42068,9.98608 -1.71126,1.8526 -3.37711,2.56182 -6.25359,2.66243 -1.39723,0.0489 -2.51026,-0.0331 -3.09796,-0.22831 z m 3.47035,-5.63702 c 2.1456,-1.30832 3.25889,-4.96646 2.62292,-8.61854 -0.28701,-1.64815 -1.05876,-3.41121 -1.7774,-4.06051 -1.75353,-1.58433 -5.24896,-1.47984 -6.77019,0.20237 -0.94188,1.04155 -1.64645,3.12488 -1.74554,5.16132 -0.17028,3.49983 1.0165,6.17921 3.22014,7.27 1.29363,0.64033 3.43849,0.66219 4.45007,0.0454 z m 59.03936,5.44458 c -1.07216,-0.36885 -1.8358,-0.84639 -2.83959,-1.77574 -1.66099,-1.53778 -2.33177,-2.56141 -3.0793,-4.69909 -0.78533,-2.24583 -1.00311,-7.25199 -0.42793,-9.8373 0.51942,-2.33473 1.5757,-4.37775 3.00284,-5.808008 1.40885,-1.411936 2.6374,-2.075274 4.6066,-2.487283 2.87162,-0.600821 5.34983,0.03484 7.46224,1.914178 0.58687,0.522119 1.10281,0.94939 1.14652,0.949481 0.0437,1.04e-4 0.0502,-2.527999 0.0143,-5.617995 l -0.0651,-5.618158 h 3.21808 3.21809 v 16.370815 c 0,12.89242 -0.061,16.39128 -0.28664,16.46713 -0.15765,0.053 -0.85416,0.0736 -1.5478,0.0459 -0.69366,-0.0278 -1.90612,-0.0601 -2.69435,-0.0718 l -1.43315,-0.0213 -0.0161,-0.8599 c -0.009,-0.47294 -0.0936,-1.05744 -0.18822,-1.29888 -0.15302,-0.39036 -0.25731,-0.33292 -0.94142,0.51836 -1.20182,1.49552 -2.84387,2.16979 -5.50411,2.26016 -1.78071,0.0605 -2.44614,-0.0181 -3.64495,-0.43053 z m 7.32626,-5.65188 c 2.44189,-1.55037 3.35025,-5.9559 2.08814,-10.12751 -0.83724,-2.76731 -3.39506,-4.19234 -5.98243,-3.33296 -2.51593,0.83566 -3.71622,3.02772 -3.72516,6.80317 -0.006,2.81837 0.45488,4.47845 1.59691,5.74363 1.0808,1.19735 1.8806,1.54072 3.61484,1.55194 1.13885,0.008 1.5714,-0.10725 2.4077,-0.63827 z m 21.1344,5.80144 c -1.92368,-0.41776 -3.66047,-1.44985 -5.11702,-3.0408 -2.12958,-2.32609 -3.02628,-5.04617 -3.04003,-9.22186 -0.0104,-3.14894 0.39604,-4.87316 1.71302,-7.26694 1.72052,-3.127316 4.47058,-4.937273 8.16561,-5.374164 3.7743,-0.446264 6.80962,0.475215 9.36826,2.844081 2.26228,2.094473 3.53499,5.544563 3.53499,9.582703 v 1.81945 h -8.27322 -8.27321 l 0.15171,0.74524 c 0.50505,2.4808 1.28519,3.72247 2.83593,4.5136 2.46708,1.25862 5.18547,0.66229 6.56273,-1.43967 l 0.39894,-0.60889 h 3.18391 c 2.01535,0 3.18391,0.0861 3.18391,0.23435 0,0.12883 -0.3025,0.90151 -0.67226,1.71695 -1.24893,2.75447 -3.99108,4.99297 -6.84878,5.59085 -1.62298,0.33956 -5.09462,0.29165 -6.87449,-0.0949 z m 8.24572,-15.47295 c -0.1327,-1.03917 -1.10851,-2.62494 -2.07254,-3.36809 -1.78109,-1.37298 -4.31314,-1.2177 -6.07728,0.37271 -0.94949,0.85599 -1.73816,2.28816 -1.74671,3.17183 l -0.005,0.52042 4.98739,-0.0619 4.9874,-0.0619 z M 38.289338,120.84085 c -0.987564,-0.60218 -1.459926,-1.34816 -1.459892,-2.30554 1.7e-5,-0.44487 0.422514,-2.2019 0.938881,-3.90449 0.866611,-2.85746 3.267832,-11.33788 4.783852,-16.895212 0.712743,-2.612714 1.19897,-3.584321 2.147682,-4.291586 0.644271,-0.480311 0.737009,-0.482872 19.697237,-0.543816 21.104473,-0.06786 19.75558,-0.161772 20.513974,1.428622 0.345046,0.723541 0.336739,0.89804 -0.13312,2.797769 -1.019213,4.120853 -2.180672,8.109663 -2.343926,8.049763 -0.09256,-0.0339 -1.306214,-1.11384 -2.697136,-2.39976 -1.791764,-1.65651 -2.749214,-2.37915 -3.284567,-2.47904 -0.415584,-0.0776 -3.748056,-0.10894 -7.405476,-0.0697 -7.609745,0.0816 -7.636213,0.0879 -9.000251,2.11257 l -0.745238,1.10622 v 8.917 8.917 L 49.154589,121.28 c -9.584064,-6.5e-4 -10.186616,-0.0252 -10.865252,-0.43897 z M 117.31567,104.71583 V 88.265641 l 3.09296,0.02275 3.09294,0.02275 0.0599,8.850816 0.0601,8.850823 0.80258,-1.04785 c 0.44141,-0.57632 2.144,-2.60999 3.78354,-4.51925 l 2.98097,-3.471404 3.86895,-7.8e-5 c 3.64288,-7.8e-5 3.85056,0.02327 3.55422,0.398606 -0.53415,0.676689 -1.79816,2.080994 -4.96838,5.519866 -1.6767,1.8188 -3.01714,3.37231 -2.97878,3.45226 0.0384,0.0799 0.35594,0.60972 0.70572,1.17725 0.34978,0.56753 1.62768,2.73447 2.83977,4.81541 1.2121,2.08095 2.86086,4.86526 3.66391,6.18735 1.66071,2.7341 1.67063,2.70205 -0.80439,2.60164 -0.83832,-0.0341 -2.36258,-0.0649 -3.38725,-0.0686 l -1.86303,-0.007 -2.80397,-5.04473 c -1.54219,-2.77459 -2.88695,-5.04471 -2.98836,-5.04471 -0.22285,0 -1.88924,1.97788 -2.2573,2.67926 -0.16434,0.31317 -0.26285,1.81697 -0.26285,4.01285 v 3.51198 h -3.09562 -3.09563 z m 52.76919,16.10624 c -0.0789,-0.18918 -0.14357,-7.56708 -0.14357,-16.39534 V 88.375322 h 3.32493 3.32493 v 16.385568 16.38558 l -3.18136,0.0104 c -2.61762,0.008 -3.2068,-0.0511 -3.32493,-0.33418 z m 12.3532,0.28344 c 2.2e-4,-0.0333 -0.0437,-5.47644 -0.0975,-12.09588 l -0.0979,-12.035341 h 3.07891 3.07889 v 1.650317 1.650314 l 0.69561,-0.945883 c 0.82093,-1.116303 2.45867,-2.25678 3.76229,-2.619948 0.51192,-0.142623 1.70469,-0.26598 2.65058,-0.274131 2.91953,-0.02509 5.28702,1.025206 6.80928,3.021024 1.38399,1.814538 1.44572,2.346068 1.44572,12.450038 v 9.11584 l -2.35039,0.072 c -1.29271,0.0396 -2.67886,0.0403 -3.08032,10e-4 l -0.72994,-0.0707 -0.0727,-8.29894 c -0.0654,-7.47169 -0.11375,-8.37423 -0.48504,-9.05431 -1.20829,-2.21311 -5.10172,-2.49416 -6.90474,-0.49844 -1.39303,1.54192 -1.51111,2.36786 -1.51111,10.5699 v 7.28374 l -3.09602,0.0697 c -1.7028,0.0383 -3.09583,0.0425 -3.09562,0.009 z m 77.13217,-0.1745 c 0.22935,-0.59772 6.32702,-9.91007 7.81907,-11.9413 0.15794,-0.21503 -0.003,-0.62133 -0.55424,-1.40105 -0.93219,-1.31807 -6.74827,-9.920223 -6.98275,-10.327747 -0.12922,-0.224562 0.66965,-0.285454 3.68945,-0.281216 l 3.85439,0.0052 2.03157,3.430833 2.03157,3.43083 1.50337,-2.46169 c 0.82686,-1.35394 1.75304,-2.900254 2.0582,-3.436257 l 0.55485,-0.974545 h 3.77747 c 2.95754,0 3.74149,0.06214 3.61167,0.286624 -0.26482,0.457834 -3.89808,5.783978 -5.8601,8.590588 -0.98865,1.41422 -1.79755,2.63327 -1.79755,2.709 0,0.0758 1.8599,2.91717 4.13309,6.31429 l 4.13312,6.1766 h -3.90056 -3.90054 l -0.55094,-0.8599 c -0.30301,-0.47294 -1.29668,-2.1375 -2.20815,-3.699 l -1.65723,-2.83911 -0.40255,0.6607 c -0.22142,0.36339 -1.20248,2.02794 -2.18017,3.699 -0.97769,1.67107 -1.84228,3.04122 -1.92132,3.04479 -0.079,0.003 -1.77364,0.0386 -3.76575,0.078 -2.75594,0.0543 -3.59668,0.005 -3.51597,-0.20489 z M 35.145056,116.87564 c -0.07561,-0.28877 -0.141681,-7.57897 -0.146834,-16.20044 -0.0092,-15.444903 -0.0025,-15.68669 0.463861,-16.441132 0.260274,-0.421135 0.815565,-0.977275 1.233977,-1.235858 0.717644,-0.443534 1.110405,-0.470171 6.931405,-0.470171 7.054203,0 5.900119,-0.316316 9.621301,2.637011 l 2.022463,1.605136 10.459202,0.11466 10.459202,0.11466 0.921557,0.610129 c 0.966342,0.639782 1.626131,1.739543 1.842113,3.07047 l 0.12831,0.790855 H 62.304944 c -18.30443,0 -17.503361,-0.05642 -19.10005,1.345487 -1.075941,0.944684 -1.544721,2.102477 -2.94578,7.275453 -0.645731,2.38416 -1.721017,6.2438 -2.389522,8.57699 -0.668511,2.33318 -1.486289,5.21452 -1.817288,6.40298 -0.331003,1.18846 -0.639619,2.19862 -0.685814,2.24482 -0.0462,0.0463 -0.145855,-0.15226 -0.221462,-0.44103 z"
       id="path847" />
  </g>
</svg>
